<?xml version="1.0" encoding="UTF-8" standalone="no"?>
<svg width="23px" height="23px" viewBox="0 0 23 23" version="1.1" xmlns="http://www.w3.org/2000/svg" xmlns:xlink="http://www.w3.org/1999/xlink">
    <g>
        <path d="M11.5004998,22.999 C17.8514623,22.999 23,17.849 23,11.499 C23,5.149 17.8514623,0 11.5004998,0 C5.14953718,0 0,5.149 0,11.499 C0,17.849 5.14953718,22.999 11.5004998,22.999" id="Shape" fill="#9D1A36"></path>
        <path d="M13.7170363,11.4995003 C15.5332448,11.5035031 17.005,12.9555084 17.005,14.7477491 C17.005,16.5419913 15.5293306,17.999 13.7101864,17.999 L6.005,17.999 L10.9790237,11.5015017 L10.9790237,11.497499 L6.005,4.999 L13.7101864,4.999 C15.5293306,4.999 17.005,6.45801008 17.005,8.25325294 C17.005,10.0434923 15.5332448,11.4954976 13.7170363,11.4995003 L13.7170363,11.4995003 Z M6.005,16.7211153 L6.005,15.4042036 L8.99156703,11.5015017 L6.005,7.58979363 L6.005,6.29289577 L9.98480607,11.5015017 L6.005,16.7211153 L6.005,16.7211153 Z M6.005,14.1023023 L6.005,12.8014017 L7.00313184,11.5015017 L6.005,10.2016018 L6.005,8.88068732 L7.99734944,11.5015017 L6.005,14.1023023 L6.005,14.1023023 Z" id="Shape" fill="#FCB723"></path>
    </g>
</svg>
